<svg xmlns="http://www.w3.org/2000/svg" width="320" height="240" viewBox="0 0 320 240"><defs><linearGradient id="g" x1="0" y1="0" x2="1" y2="1"><stop stop-color="#171d31"/><stop offset="1" stop-color="#05080f"/></linearGradient><radialGradient id="glow"><stop stop-color="#a13a3a" stop-opacity=".35"/><stop offset="1" stop-color="#a13a3a" stop-opacity="0"/></radialGradient></defs><rect width="320" height="240" fill="url(#g)"/><rect width="320" height="240" fill="url(#glow)"/><circle cx="139" cy="48" r="2" fill="#dce5f5" opacity="0.50"/><circle cx="39" cy="73" r="1.5" fill="#dce5f5" opacity="0.50"/><circle cx="64" cy="145" r="2" fill="#dce5f5" opacity="0.60"/><circle cx="120" cy="40" r="1" fill="#dce5f5" opacity="0.25"/><circle cx="52" cy="76" r="1.5" fill="#dce5f5" opacity="0.21"/><circle cx="229" cy="17" r="1" fill="#dce5f5" opacity="0.55"/><circle cx="105" cy="36" r="1.5" fill="#dce5f5" opacity="0.16"/><circle cx="205" cy="48" r="1" fill="#dce5f5" opacity="0.24"/><circle cx="150" cy="18" r="1" fill="#dce5f5" opacity="0.45"/><circle cx="123" cy="134" r="2" fill="#dce5f5" opacity="0.49"/><circle cx="284" cy="78" r="2" fill="#dce5f5" opacity="0.54"/><circle cx="221" cy="15" r="1" fill="#dce5f5" opacity="0.50"/><circle cx="48" cy="96" r="1" fill="#dce5f5" opacity="0.17"/><circle cx="270" cy="62" r="2" fill="#dce5f5" opacity="0.61"/><circle cx="183" cy="125" r="1" fill="#dce5f5" opacity="0.51"/><circle cx="15" cy="31" r="1.5" fill="#dce5f5" opacity="0.50"/><circle cx="164" cy="115" r="2" fill="#dce5f5" opacity="0.24"/><circle cx="20" cy="27" r="1" fill="#dce5f5" opacity="0.34"/><circle cx="233" cy="68" r="1" fill="#dce5f5" opacity="0.47"/><circle cx="152" cy="76" r="1" fill="#dce5f5" opacity="0.49"/><circle cx="92" cy="113" r="2" fill="#dce5f5" opacity="0.59"/><circle cx="62" cy="45" r="2" fill="#dce5f5" opacity="0.30"/><circle cx="100" cy="96" r="2" fill="#dce5f5" opacity="0.22"/><circle cx="281" cy="122" r="2" fill="#dce5f5" opacity="0.42"/><circle cx="60" cy="148" r="1" fill="#dce5f5" opacity="0.16"/><circle cx="205" cy="95" r="1" fill="#dce5f5" opacity="0.32"/><circle cx="156" cy="13" r="1" fill="#dce5f5" opacity="0.18"/><circle cx="170" cy="134" r="1.5" fill="#dce5f5" opacity="0.51"/><circle cx="254" cy="94" r="1" fill="#dce5f5" opacity="0.33"/><circle cx="94" cy="121" r="1.5" fill="#dce5f5" opacity="0.55"/><circle cx="242" cy="133" r="1.5" fill="#dce5f5" opacity="0.41"/><circle cx="258" cy="17" r="1" fill="#dce5f5" opacity="0.62"/><circle cx="193" cy="72" r="1" fill="#dce5f5" opacity="0.30"/><circle cx="225" cy="9" r="2" fill="#dce5f5" opacity="0.25"/><ellipse cx="160" cy="232" rx="100" ry="62" fill="#0a101a"/><path d="M72 238 Q80 170 120 164 L200 164 Q244 180 250 238Z" fill="#a13a3a" opacity=".65"/><path d="M112 120 Q100 60 160 54 Q220 60 208 120 L200 154 Q160 186 120 154Z" fill="#b97859"/><path d="M109 112 Q95 45 160 48 Q225 47 211 116 L197 88 Q158 106 121 84Z" fill="#171923"/><path d="M132 126 L146 126 M173 126 L187 126" stroke="#201719" stroke-width="4" stroke-linecap="round"/><path d="M148 149 Q160 156 174 148" fill="none" stroke="#5d2929" stroke-width="3"/><path d="M145 166 L160 188 L176 166" fill="#e2d6c6"/><path d="M0 0H320V240H0Z" fill="none" stroke="#a13a3a" stroke-width="2"/><path d="M12 14H55 M12 14V45 M308 226H265 M308 226V195" stroke="#a13a3a" stroke-width="2" opacity=".9"/><text x="16" y="222" fill="#e8edf5" font-family="Arial,sans-serif" font-size="10" letter-spacing="2" opacity=".8">CASE FILE / 101</text></svg>