<svg xmlns="http://www.w3.org/2000/svg" width="320" height="240" viewBox="0 0 320 240"><defs><linearGradient id="g" x1="0" y1="0" x2="1" y2="1"><stop stop-color="#2b1d31"/><stop offset="1" stop-color="#05080f"/></linearGradient><radialGradient id="glow"><stop stop-color="#ba9854" stop-opacity=".35"/><stop offset="1" stop-color="#ba9854" stop-opacity="0"/></radialGradient></defs><rect width="320" height="240" fill="url(#g)"/><rect width="320" height="240" fill="url(#glow)"/><circle cx="163" cy="103" r="1.5" fill="#dce5f5" opacity="0.43"/><circle cx="35" cy="52" r="1" fill="#dce5f5" opacity="0.59"/><circle cx="226" cy="150" r="1" fill="#dce5f5" opacity="0.46"/><circle cx="38" cy="33" r="2" fill="#dce5f5" opacity="0.43"/><circle cx="267" cy="60" r="1.5" fill="#dce5f5" opacity="0.45"/><circle cx="53" cy="16" r="2" fill="#dce5f5" opacity="0.52"/><circle cx="64" cy="37" r="2" fill="#dce5f5" opacity="0.57"/><circle cx="286" cy="36" r="1" fill="#dce5f5" opacity="0.25"/><circle cx="145" cy="83" r="1.5" fill="#dce5f5" opacity="0.47"/><circle cx="213" cy="125" r="1.5" fill="#dce5f5" opacity="0.65"/><circle cx="9" cy="93" r="1.5" fill="#dce5f5" opacity="0.30"/><circle cx="8" cy="115" r="1" fill="#dce5f5" opacity="0.30"/><circle cx="76" cy="138" r="1.5" fill="#dce5f5" opacity="0.42"/><circle cx="118" cy="30" r="1" fill="#dce5f5" opacity="0.20"/><circle cx="94" cy="136" r="1" fill="#dce5f5" opacity="0.44"/><circle cx="30" cy="120" r="1.5" fill="#dce5f5" opacity="0.50"/><circle cx="251" cy="139" r="1.5" fill="#dce5f5" opacity="0.50"/><circle cx="149" cy="99" r="2" fill="#dce5f5" opacity="0.59"/><circle cx="137" cy="140" r="2" fill="#dce5f5" opacity="0.36"/><circle cx="39" cy="77" r="2" fill="#dce5f5" opacity="0.34"/><circle cx="236" cy="126" r="1.5" fill="#dce5f5" opacity="0.25"/><circle cx="200" cy="16" r="1" fill="#dce5f5" opacity="0.50"/><circle cx="58" cy="125" r="1" fill="#dce5f5" opacity="0.63"/><circle cx="93" cy="100" r="1" fill="#dce5f5" opacity="0.15"/><circle cx="8" cy="143" r="1.5" fill="#dce5f5" opacity="0.52"/><circle cx="8" cy="102" r="1.5" fill="#dce5f5" opacity="0.24"/><circle cx="76" cy="117" r="1.5" fill="#dce5f5" opacity="0.26"/><circle cx="291" cy="86" r="2" fill="#dce5f5" opacity="0.42"/><circle cx="130" cy="57" r="1.5" fill="#dce5f5" opacity="0.21"/><circle cx="72" cy="143" r="2" fill="#dce5f5" opacity="0.65"/><circle cx="84" cy="66" r="2" fill="#dce5f5" opacity="0.63"/><circle cx="164" cy="8" r="1" fill="#dce5f5" opacity="0.46"/><circle cx="225" cy="96" r="2" fill="#dce5f5" opacity="0.30"/><circle cx="114" cy="102" r="1.5" fill="#dce5f5" opacity="0.21"/><ellipse cx="160" cy="232" rx="100" ry="62" fill="#0a101a"/><path d="M72 238 Q80 170 120 164 L200 164 Q244 180 250 238Z" fill="#ba9854" opacity=".65"/><path d="M112 120 Q100 60 160 54 Q220 60 208 120 L200 154 Q160 186 120 154Z" fill="#b97859"/><path d="M109 112 Q95 45 160 48 Q225 47 211 116 L197 88 Q158 106 121 84Z" fill="#171923"/><path d="M132 126 L146 126 M173 126 L187 126" stroke="#201719" stroke-width="4" stroke-linecap="round"/><path d="M148 149 Q160 156 174 148" fill="none" stroke="#5d2929" stroke-width="3"/><path d="M145 166 L160 188 L176 166" fill="#e2d6c6"/><path d="M0 0H320V240H0Z" fill="none" stroke="#ba9854" stroke-width="2"/><path d="M12 14H55 M12 14V45 M308 226H265 M308 226V195" stroke="#ba9854" stroke-width="2" opacity=".9"/><text x="16" y="222" fill="#e8edf5" font-family="Arial,sans-serif" font-size="10" letter-spacing="2" opacity=".8">CASE FILE / 66</text></svg>