<svg xmlns="http://www.w3.org/2000/svg" width="320" height="240" viewBox="0 0 320 240"><defs><linearGradient id="g" x1="0" y1="0" x2="1" y2="1"><stop stop-color="#24232b"/><stop offset="1" stop-color="#05080f"/></linearGradient><radialGradient id="glow"><stop stop-color="#d4b15f" stop-opacity=".35"/><stop offset="1" stop-color="#d4b15f" stop-opacity="0"/></radialGradient></defs><rect width="320" height="240" fill="url(#g)"/><rect width="320" height="240" fill="url(#glow)"/><circle cx="46" cy="23" r="1" fill="#dce5f5" opacity="0.45"/><circle cx="274" cy="78" r="1.5" fill="#dce5f5" opacity="0.45"/><circle cx="117" cy="138" r="2" fill="#dce5f5" opacity="0.22"/><circle cx="114" cy="103" r="1.5" fill="#dce5f5" opacity="0.61"/><circle cx="216" cy="118" r="2" fill="#dce5f5" opacity="0.40"/><circle cx="108" cy="95" r="1.5" fill="#dce5f5" opacity="0.30"/><circle cx="206" cy="50" r="2" fill="#dce5f5" opacity="0.57"/><circle cx="130" cy="55" r="2" fill="#dce5f5" opacity="0.24"/><circle cx="97" cy="28" r="2" fill="#dce5f5" opacity="0.19"/><circle cx="228" cy="116" r="2" fill="#dce5f5" opacity="0.64"/><circle cx="204" cy="46" r="2" fill="#dce5f5" opacity="0.64"/><circle cx="47" cy="23" r="2" fill="#dce5f5" opacity="0.17"/><circle cx="200" cy="96" r="1" fill="#dce5f5" opacity="0.15"/><circle cx="185" cy="81" r="2" fill="#dce5f5" opacity="0.40"/><circle cx="41" cy="26" r="1" fill="#dce5f5" opacity="0.17"/><circle cx="215" cy="116" r="1.5" fill="#dce5f5" opacity="0.31"/><circle cx="257" cy="92" r="1.5" fill="#dce5f5" opacity="0.21"/><circle cx="216" cy="80" r="1.5" fill="#dce5f5" opacity="0.63"/><circle cx="254" cy="69" r="2" fill="#dce5f5" opacity="0.28"/><circle cx="125" cy="21" r="1.5" fill="#dce5f5" opacity="0.20"/><circle cx="158" cy="72" r="2" fill="#dce5f5" opacity="0.34"/><circle cx="256" cy="55" r="2" fill="#dce5f5" opacity="0.63"/><circle cx="264" cy="63" r="2" fill="#dce5f5" opacity="0.41"/><circle cx="233" cy="135" r="2" fill="#dce5f5" opacity="0.53"/><circle cx="151" cy="121" r="2" fill="#dce5f5" opacity="0.47"/><circle cx="193" cy="24" r="1.5" fill="#dce5f5" opacity="0.25"/><circle cx="211" cy="13" r="1.5" fill="#dce5f5" opacity="0.40"/><circle cx="274" cy="56" r="2" fill="#dce5f5" opacity="0.36"/><circle cx="275" cy="38" r="1.5" fill="#dce5f5" opacity="0.16"/><circle cx="33" cy="55" r="1" fill="#dce5f5" opacity="0.46"/><circle cx="208" cy="14" r="1.5" fill="#dce5f5" opacity="0.50"/><circle cx="46" cy="41" r="1" fill="#dce5f5" opacity="0.58"/><circle cx="127" cy="44" r="1" fill="#dce5f5" opacity="0.61"/><circle cx="141" cy="11" r="2" fill="#dce5f5" opacity="0.45"/><ellipse cx="160" cy="232" rx="100" ry="62" fill="#0a101a"/><path d="M72 238 Q80 170 120 164 L200 164 Q244 180 250 238Z" fill="#d4b15f" opacity=".65"/><path d="M112 120 Q100 60 160 54 Q220 60 208 120 L200 154 Q160 186 120 154Z" fill="#d9ad8c"/><path d="M109 112 Q95 45 160 48 Q225 47 211 116 L197 88 Q158 106 121 84Z" fill="#473027"/><path d="M132 126 L146 126 M173 126 L187 126" stroke="#201719" stroke-width="4" stroke-linecap="round"/><path d="M148 149 Q160 156 174 148" fill="none" stroke="#5d2929" stroke-width="3"/><path d="M145 166 L160 188 L176 166" fill="#e2d6c6"/><path d="M0 0H320V240H0Z" fill="none" stroke="#d4b15f" stroke-width="2"/><path d="M12 14H55 M12 14V45 M308 226H265 M308 226V195" stroke="#d4b15f" stroke-width="2" opacity=".9"/><text x="16" y="222" fill="#e8edf5" font-family="Arial,sans-serif" font-size="10" letter-spacing="2" opacity=".8">CASE FILE / 29</text></svg>