<svg xmlns="http://www.w3.org/2000/svg" width="320" height="240" viewBox="0 0 320 240"><defs><linearGradient id="g" x1="0" y1="0" x2="1" y2="1"><stop stop-color="#102c38"/><stop offset="1" stop-color="#05080f"/></linearGradient><radialGradient id="glow"><stop stop-color="#4aa0b5" stop-opacity=".35"/><stop offset="1" stop-color="#4aa0b5" stop-opacity="0"/></radialGradient></defs><rect width="320" height="240" fill="url(#g)"/><rect width="320" height="240" fill="url(#glow)"/><circle cx="18" cy="68" r="2" fill="#dce5f5" opacity="0.46"/><circle cx="200" cy="113" r="1" fill="#dce5f5" opacity="0.59"/><circle cx="93" cy="94" r="1.5" fill="#dce5f5" opacity="0.20"/><circle cx="267" cy="46" r="1" fill="#dce5f5" opacity="0.57"/><circle cx="106" cy="98" r="1" fill="#dce5f5" opacity="0.46"/><circle cx="290" cy="67" r="1.5" fill="#dce5f5" opacity="0.29"/><circle cx="230" cy="51" r="1" fill="#dce5f5" opacity="0.31"/><circle cx="47" cy="37" r="1.5" fill="#dce5f5" opacity="0.58"/><circle cx="206" cy="74" r="2" fill="#dce5f5" opacity="0.41"/><circle cx="97" cy="121" r="1" fill="#dce5f5" opacity="0.62"/><circle cx="109" cy="58" r="2" fill="#dce5f5" opacity="0.32"/><circle cx="62" cy="54" r="1" fill="#dce5f5" opacity="0.23"/><circle cx="227" cy="68" r="2" fill="#dce5f5" opacity="0.53"/><circle cx="226" cy="101" r="1.5" fill="#dce5f5" opacity="0.60"/><circle cx="230" cy="75" r="2" fill="#dce5f5" opacity="0.47"/><circle cx="111" cy="113" r="2" fill="#dce5f5" opacity="0.22"/><circle cx="101" cy="49" r="2" fill="#dce5f5" opacity="0.51"/><circle cx="42" cy="45" r="1.5" fill="#dce5f5" opacity="0.19"/><circle cx="85" cy="125" r="2" fill="#dce5f5" opacity="0.16"/><circle cx="21" cy="32" r="2" fill="#dce5f5" opacity="0.41"/><circle cx="49" cy="110" r="1.5" fill="#dce5f5" opacity="0.29"/><circle cx="31" cy="135" r="1" fill="#dce5f5" opacity="0.51"/><circle cx="91" cy="32" r="1" fill="#dce5f5" opacity="0.47"/><circle cx="188" cy="41" r="2" fill="#dce5f5" opacity="0.34"/><circle cx="188" cy="44" r="2" fill="#dce5f5" opacity="0.24"/><circle cx="10" cy="119" r="2" fill="#dce5f5" opacity="0.43"/><circle cx="128" cy="94" r="2" fill="#dce5f5" opacity="0.47"/><circle cx="72" cy="84" r="1.5" fill="#dce5f5" opacity="0.20"/><circle cx="176" cy="123" r="2" fill="#dce5f5" opacity="0.62"/><circle cx="192" cy="23" r="1.5" fill="#dce5f5" opacity="0.56"/><circle cx="129" cy="83" r="1.5" fill="#dce5f5" opacity="0.48"/><circle cx="233" cy="75" r="1.5" fill="#dce5f5" opacity="0.55"/><circle cx="244" cy="35" r="1.5" fill="#dce5f5" opacity="0.50"/><circle cx="31" cy="60" r="1" fill="#dce5f5" opacity="0.29"/><ellipse cx="160" cy="232" rx="100" ry="62" fill="#0a101a"/><path d="M72 238 Q80 170 120 164 L200 164 Q244 180 250 238Z" fill="#4aa0b5" opacity=".65"/><path d="M112 120 Q100 60 160 54 Q220 60 208 120 L200 154 Q160 186 120 154Z" fill="#a96f57"/><path d="M109 112 Q95 45 160 48 Q225 47 211 116 L197 88 Q158 106 121 84Z" fill="#201a19"/><path d="M132 126 L146 126 M173 126 L187 126" stroke="#201719" stroke-width="4" stroke-linecap="round"/><path d="M148 149 Q160 156 174 148" fill="none" stroke="#5d2929" stroke-width="3"/><path d="M145 166 L160 188 L176 166" fill="#e2d6c6"/><path d="M0 0H320V240H0Z" fill="none" stroke="#4aa0b5" stroke-width="2"/><path d="M12 14H55 M12 14V45 M308 226H265 M308 226V195" stroke="#4aa0b5" stroke-width="2" opacity=".9"/><text x="16" y="222" fill="#e8edf5" font-family="Arial,sans-serif" font-size="10" letter-spacing="2" opacity=".8">CASE FILE / 30</text></svg>