<svg xmlns="http://www.w3.org/2000/svg" width="320" height="240" viewBox="0 0 320 240"><defs><linearGradient id="g" x1="0" y1="0" x2="1" y2="1"><stop stop-color="#1b2638"/><stop offset="1" stop-color="#05080f"/></linearGradient><radialGradient id="glow"><stop stop-color="#e0b64f" stop-opacity=".35"/><stop offset="1" stop-color="#e0b64f" stop-opacity="0"/></radialGradient></defs><rect width="320" height="240" fill="url(#g)"/><rect width="320" height="240" fill="url(#glow)"/><circle cx="276" cy="69" r="1.5" fill="#dce5f5" opacity="0.30"/><circle cx="191" cy="123" r="1.5" fill="#dce5f5" opacity="0.48"/><circle cx="97" cy="25" r="1" fill="#dce5f5" opacity="0.18"/><circle cx="194" cy="89" r="1.5" fill="#dce5f5" opacity="0.54"/><circle cx="142" cy="140" r="2" fill="#dce5f5" opacity="0.39"/><circle cx="282" cy="29" r="2" fill="#dce5f5" opacity="0.23"/><circle cx="201" cy="81" r="2" fill="#dce5f5" opacity="0.25"/><circle cx="137" cy="70" r="2" fill="#dce5f5" opacity="0.57"/><circle cx="104" cy="44" r="1" fill="#dce5f5" opacity="0.52"/><circle cx="217" cy="48" r="2" fill="#dce5f5" opacity="0.22"/><circle cx="241" cy="143" r="2" fill="#dce5f5" opacity="0.56"/><circle cx="280" cy="8" r="1" fill="#dce5f5" opacity="0.29"/><circle cx="126" cy="35" r="1" fill="#dce5f5" opacity="0.54"/><circle cx="173" cy="55" r="1.5" fill="#dce5f5" opacity="0.31"/><circle cx="215" cy="59" r="1.5" fill="#dce5f5" opacity="0.37"/><circle cx="190" cy="54" r="1" fill="#dce5f5" opacity="0.26"/><circle cx="24" cy="127" r="1" fill="#dce5f5" opacity="0.21"/><circle cx="77" cy="98" r="1" fill="#dce5f5" opacity="0.61"/><circle cx="184" cy="54" r="2" fill="#dce5f5" opacity="0.35"/><circle cx="77" cy="32" r="1.5" fill="#dce5f5" opacity="0.19"/><circle cx="47" cy="89" r="1" fill="#dce5f5" opacity="0.59"/><circle cx="193" cy="72" r="1" fill="#dce5f5" opacity="0.40"/><circle cx="80" cy="15" r="1.5" fill="#dce5f5" opacity="0.35"/><circle cx="183" cy="87" r="1.5" fill="#dce5f5" opacity="0.39"/><circle cx="206" cy="12" r="1.5" fill="#dce5f5" opacity="0.62"/><circle cx="41" cy="122" r="1" fill="#dce5f5" opacity="0.15"/><circle cx="171" cy="35" r="1.5" fill="#dce5f5" opacity="0.18"/><circle cx="260" cy="134" r="1.5" fill="#dce5f5" opacity="0.34"/><circle cx="206" cy="132" r="1.5" fill="#dce5f5" opacity="0.42"/><circle cx="177" cy="129" r="2" fill="#dce5f5" opacity="0.47"/><circle cx="22" cy="120" r="1.5" fill="#dce5f5" opacity="0.59"/><circle cx="147" cy="35" r="1" fill="#dce5f5" opacity="0.27"/><circle cx="90" cy="135" r="2" fill="#dce5f5" opacity="0.34"/><circle cx="63" cy="21" r="2" fill="#dce5f5" opacity="0.60"/><ellipse cx="160" cy="232" rx="100" ry="62" fill="#0a101a"/><path d="M72 238 Q80 170 120 164 L200 164 Q244 180 250 238Z" fill="#e0b64f" opacity=".65"/><path d="M112 120 Q100 60 160 54 Q220 60 208 120 L200 154 Q160 186 120 154Z" fill="#8e5c49"/><path d="M109 112 Q95 45 160 48 Q225 47 211 116 L197 88 Q158 106 121 84Z" fill="#11151b"/><path d="M132 126 L146 126 M173 126 L187 126" stroke="#201719" stroke-width="4" stroke-linecap="round"/><path d="M148 149 Q160 156 174 148" fill="none" stroke="#5d2929" stroke-width="3"/><path d="M145 166 L160 188 L176 166" fill="#e2d6c6"/><path d="M0 0H320V240H0Z" fill="none" stroke="#e0b64f" stroke-width="2"/><path d="M12 14H55 M12 14V45 M308 226H265 M308 226V195" stroke="#e0b64f" stroke-width="2" opacity=".9"/><text x="16" y="222" fill="#e8edf5" font-family="Arial,sans-serif" font-size="10" letter-spacing="2" opacity=".8">CASE FILE / 13</text></svg>