<svg xmlns="http://www.w3.org/2000/svg" width="320" height="240" viewBox="0 0 320 240"><defs><linearGradient id="g" x1="0" y1="0" x2="1" y2="1"><stop stop-color="#2b1d31"/><stop offset="1" stop-color="#05080f"/></linearGradient><radialGradient id="glow"><stop stop-color="#ba9854" stop-opacity=".35"/><stop offset="1" stop-color="#ba9854" stop-opacity="0"/></radialGradient></defs><rect width="320" height="240" fill="url(#g)"/><rect width="320" height="240" fill="url(#glow)"/><circle cx="108" cy="134" r="1.5" fill="#dce5f5" opacity="0.33"/><circle cx="88" cy="73" r="1" fill="#dce5f5" opacity="0.20"/><circle cx="248" cy="47" r="2" fill="#dce5f5" opacity="0.42"/><circle cx="26" cy="80" r="1" fill="#dce5f5" opacity="0.38"/><circle cx="177" cy="76" r="1" fill="#dce5f5" opacity="0.47"/><circle cx="114" cy="64" r="1" fill="#dce5f5" opacity="0.36"/><circle cx="269" cy="56" r="1" fill="#dce5f5" opacity="0.21"/><circle cx="212" cy="12" r="1.5" fill="#dce5f5" opacity="0.43"/><circle cx="85" cy="12" r="1" fill="#dce5f5" opacity="0.59"/><circle cx="13" cy="22" r="1.5" fill="#dce5f5" opacity="0.56"/><circle cx="103" cy="49" r="1.5" fill="#dce5f5" opacity="0.32"/><circle cx="127" cy="40" r="2" fill="#dce5f5" opacity="0.63"/><circle cx="154" cy="141" r="1" fill="#dce5f5" opacity="0.58"/><circle cx="239" cy="140" r="2" fill="#dce5f5" opacity="0.15"/><circle cx="28" cy="61" r="2" fill="#dce5f5" opacity="0.50"/><circle cx="255" cy="135" r="1" fill="#dce5f5" opacity="0.64"/><circle cx="137" cy="20" r="2" fill="#dce5f5" opacity="0.50"/><circle cx="198" cy="70" r="2" fill="#dce5f5" opacity="0.59"/><circle cx="11" cy="52" r="1" fill="#dce5f5" opacity="0.50"/><circle cx="130" cy="31" r="2" fill="#dce5f5" opacity="0.47"/><circle cx="67" cy="121" r="1.5" fill="#dce5f5" opacity="0.27"/><circle cx="30" cy="47" r="2" fill="#dce5f5" opacity="0.59"/><circle cx="120" cy="129" r="2" fill="#dce5f5" opacity="0.24"/><circle cx="60" cy="144" r="1.5" fill="#dce5f5" opacity="0.27"/><circle cx="260" cy="84" r="1.5" fill="#dce5f5" opacity="0.18"/><circle cx="128" cy="107" r="2" fill="#dce5f5" opacity="0.56"/><circle cx="146" cy="81" r="2" fill="#dce5f5" opacity="0.46"/><circle cx="240" cy="16" r="1" fill="#dce5f5" opacity="0.48"/><circle cx="289" cy="136" r="2" fill="#dce5f5" opacity="0.38"/><circle cx="165" cy="112" r="1.5" fill="#dce5f5" opacity="0.19"/><circle cx="144" cy="61" r="1" fill="#dce5f5" opacity="0.34"/><circle cx="171" cy="56" r="1.5" fill="#dce5f5" opacity="0.21"/><circle cx="234" cy="106" r="1" fill="#dce5f5" opacity="0.62"/><circle cx="92" cy="133" r="1.5" fill="#dce5f5" opacity="0.39"/><ellipse cx="160" cy="200" rx="120" ry="20" fill="#02050a" opacity=".6"/><path d="M70 65 L240 175 L220 198 L52 90Z" fill="#c4c9d0" stroke="#ba9854" stroke-width="3"/><path d="M52 90L82 108L70 65Z" fill="#343b48"/><path d="M0 0H320V240H0Z" fill="none" stroke="#ba9854" stroke-width="2"/><path d="M12 14H55 M12 14V45 M308 226H265 M308 226V195" stroke="#ba9854" stroke-width="2" opacity=".9"/><text x="16" y="222" fill="#e8edf5" font-family="Arial,sans-serif" font-size="10" letter-spacing="2" opacity=".8">CASE FILE / 86</text></svg>