<svg xmlns="http://www.w3.org/2000/svg" width="320" height="240" viewBox="0 0 320 240"><defs><linearGradient id="g" x1="0" y1="0" x2="1" y2="1"><stop stop-color="#301b28"/><stop offset="1" stop-color="#05080f"/></linearGradient><radialGradient id="glow"><stop stop-color="#c04c58" stop-opacity=".35"/><stop offset="1" stop-color="#c04c58" stop-opacity="0"/></radialGradient></defs><rect width="320" height="240" fill="url(#g)"/><rect width="320" height="240" fill="url(#glow)"/><circle cx="90" cy="71" r="2" fill="#dce5f5" opacity="0.54"/><circle cx="213" cy="103" r="1.5" fill="#dce5f5" opacity="0.44"/><circle cx="46" cy="80" r="1" fill="#dce5f5" opacity="0.27"/><circle cx="116" cy="108" r="1.5" fill="#dce5f5" opacity="0.63"/><circle cx="100" cy="93" r="1" fill="#dce5f5" opacity="0.46"/><circle cx="110" cy="20" r="1" fill="#dce5f5" opacity="0.55"/><circle cx="274" cy="8" r="2" fill="#dce5f5" opacity="0.41"/><circle cx="281" cy="77" r="2" fill="#dce5f5" opacity="0.62"/><circle cx="256" cy="80" r="1.5" fill="#dce5f5" opacity="0.45"/><circle cx="113" cy="42" r="1" fill="#dce5f5" opacity="0.31"/><circle cx="191" cy="149" r="2" fill="#dce5f5" opacity="0.60"/><circle cx="212" cy="25" r="1.5" fill="#dce5f5" opacity="0.64"/><circle cx="86" cy="101" r="2" fill="#dce5f5" opacity="0.21"/><circle cx="55" cy="50" r="2" fill="#dce5f5" opacity="0.41"/><circle cx="21" cy="93" r="2" fill="#dce5f5" opacity="0.56"/><circle cx="82" cy="105" r="1" fill="#dce5f5" opacity="0.18"/><circle cx="275" cy="79" r="2" fill="#dce5f5" opacity="0.22"/><circle cx="165" cy="137" r="2" fill="#dce5f5" opacity="0.62"/><circle cx="31" cy="89" r="2" fill="#dce5f5" opacity="0.62"/><circle cx="214" cy="119" r="2" fill="#dce5f5" opacity="0.23"/><circle cx="25" cy="104" r="2" fill="#dce5f5" opacity="0.57"/><circle cx="71" cy="130" r="2" fill="#dce5f5" opacity="0.31"/><circle cx="34" cy="82" r="1.5" fill="#dce5f5" opacity="0.50"/><circle cx="161" cy="145" r="1" fill="#dce5f5" opacity="0.34"/><circle cx="250" cy="114" r="1.5" fill="#dce5f5" opacity="0.57"/><circle cx="251" cy="57" r="2" fill="#dce5f5" opacity="0.25"/><circle cx="141" cy="117" r="2" fill="#dce5f5" opacity="0.42"/><circle cx="250" cy="95" r="1.5" fill="#dce5f5" opacity="0.46"/><circle cx="51" cy="93" r="2" fill="#dce5f5" opacity="0.22"/><circle cx="165" cy="86" r="1" fill="#dce5f5" opacity="0.58"/><circle cx="203" cy="115" r="1.5" fill="#dce5f5" opacity="0.43"/><circle cx="195" cy="35" r="1.5" fill="#dce5f5" opacity="0.32"/><circle cx="103" cy="30" r="1.5" fill="#dce5f5" opacity="0.44"/><circle cx="242" cy="119" r="1.5" fill="#dce5f5" opacity="0.43"/><ellipse cx="160" cy="200" rx="120" ry="20" fill="#02050a" opacity=".6"/><rect x="86" y="48" width="148" height="150" rx="10" fill="#0c1421" stroke="#c04c58" stroke-width="4"/><rect x="101" y="64" width="118" height="105" rx="4" fill="#233043"/><circle cx="160" cy="181" r="5" fill="#d5dbe5"/><path d="M0 0H320V240H0Z" fill="none" stroke="#c04c58" stroke-width="2"/><path d="M12 14H55 M12 14V45 M308 226H265 M308 226V195" stroke="#c04c58" stroke-width="2" opacity=".9"/><text x="16" y="222" fill="#e8edf5" font-family="Arial,sans-serif" font-size="10" letter-spacing="2" opacity=".8">CASE FILE / 104</text></svg>