<svg xmlns="http://www.w3.org/2000/svg" width="320" height="240" viewBox="0 0 320 240"><defs><linearGradient id="g" x1="0" y1="0" x2="1" y2="1"><stop stop-color="#163329"/><stop offset="1" stop-color="#05080f"/></linearGradient><radialGradient id="glow"><stop stop-color="#8c9b6a" stop-opacity=".35"/><stop offset="1" stop-color="#8c9b6a" stop-opacity="0"/></radialGradient></defs><rect width="320" height="240" fill="url(#g)"/><rect width="320" height="240" fill="url(#glow)"/><circle cx="28" cy="35" r="1.5" fill="#dce5f5" opacity="0.31"/><circle cx="19" cy="98" r="1" fill="#dce5f5" opacity="0.33"/><circle cx="255" cy="52" r="2" fill="#dce5f5" opacity="0.44"/><circle cx="34" cy="30" r="2" fill="#dce5f5" opacity="0.62"/><circle cx="143" cy="102" r="2" fill="#dce5f5" opacity="0.21"/><circle cx="138" cy="137" r="2" fill="#dce5f5" opacity="0.58"/><circle cx="214" cy="47" r="1" fill="#dce5f5" opacity="0.26"/><circle cx="179" cy="116" r="1" fill="#dce5f5" opacity="0.63"/><circle cx="115" cy="37" r="2" fill="#dce5f5" opacity="0.43"/><circle cx="174" cy="14" r="1" fill="#dce5f5" opacity="0.60"/><circle cx="166" cy="86" r="1" fill="#dce5f5" opacity="0.32"/><circle cx="145" cy="108" r="1.5" fill="#dce5f5" opacity="0.61"/><circle cx="102" cy="23" r="1.5" fill="#dce5f5" opacity="0.62"/><circle cx="239" cy="120" r="1.5" fill="#dce5f5" opacity="0.43"/><circle cx="127" cy="115" r="2" fill="#dce5f5" opacity="0.52"/><circle cx="205" cy="41" r="1" fill="#dce5f5" opacity="0.56"/><circle cx="182" cy="61" r="2" fill="#dce5f5" opacity="0.43"/><circle cx="168" cy="24" r="1.5" fill="#dce5f5" opacity="0.63"/><circle cx="256" cy="63" r="1.5" fill="#dce5f5" opacity="0.48"/><circle cx="10" cy="129" r="1" fill="#dce5f5" opacity="0.38"/><circle cx="147" cy="47" r="1.5" fill="#dce5f5" opacity="0.47"/><circle cx="234" cy="9" r="1" fill="#dce5f5" opacity="0.50"/><circle cx="79" cy="24" r="1.5" fill="#dce5f5" opacity="0.52"/><circle cx="229" cy="90" r="1" fill="#dce5f5" opacity="0.31"/><circle cx="181" cy="108" r="1.5" fill="#dce5f5" opacity="0.29"/><circle cx="227" cy="94" r="2" fill="#dce5f5" opacity="0.31"/><circle cx="73" cy="27" r="1" fill="#dce5f5" opacity="0.29"/><circle cx="177" cy="70" r="1.5" fill="#dce5f5" opacity="0.55"/><circle cx="161" cy="143" r="1" fill="#dce5f5" opacity="0.54"/><circle cx="37" cy="28" r="1.5" fill="#dce5f5" opacity="0.44"/><circle cx="119" cy="82" r="1.5" fill="#dce5f5" opacity="0.31"/><circle cx="92" cy="102" r="2" fill="#dce5f5" opacity="0.21"/><circle cx="156" cy="110" r="2" fill="#dce5f5" opacity="0.34"/><circle cx="154" cy="36" r="1.5" fill="#dce5f5" opacity="0.17"/><ellipse cx="160" cy="200" rx="120" ry="20" fill="#02050a" opacity=".6"/><path d="M74 64H236V182H74Z" fill="#d4c6a6" stroke="#8c9b6a" stroke-width="5"/><path d="M94 91H215 M94 113H201 M94 135H220 M94 157H170" stroke="#4a453b" stroke-width="4"/><path d="M0 0H320V240H0Z" fill="none" stroke="#8c9b6a" stroke-width="2"/><path d="M12 14H55 M12 14V45 M308 226H265 M308 226V195" stroke="#8c9b6a" stroke-width="2" opacity=".9"/><text x="16" y="222" fill="#e8edf5" font-family="Arial,sans-serif" font-size="10" letter-spacing="2" opacity=".8">CASE FILE / 23</text></svg>