<svg xmlns="http://www.w3.org/2000/svg" width="320" height="240" viewBox="0 0 320 240"><defs><linearGradient id="g" x1="0" y1="0" x2="1" y2="1"><stop stop-color="#20262d"/><stop offset="1" stop-color="#05080f"/></linearGradient><radialGradient id="glow"><stop stop-color="#9c9a82" stop-opacity=".35"/><stop offset="1" stop-color="#9c9a82" stop-opacity="0"/></radialGradient></defs><rect width="320" height="240" fill="url(#g)"/><rect width="320" height="240" fill="url(#glow)"/><circle cx="67" cy="24" r="2" fill="#dce5f5" opacity="0.27"/><circle cx="178" cy="30" r="1" fill="#dce5f5" opacity="0.56"/><circle cx="208" cy="98" r="1.5" fill="#dce5f5" opacity="0.60"/><circle cx="45" cy="72" r="2" fill="#dce5f5" opacity="0.31"/><circle cx="278" cy="106" r="2" fill="#dce5f5" opacity="0.49"/><circle cx="142" cy="91" r="1.5" fill="#dce5f5" opacity="0.51"/><circle cx="97" cy="73" r="2" fill="#dce5f5" opacity="0.57"/><circle cx="171" cy="48" r="1.5" fill="#dce5f5" opacity="0.42"/><circle cx="138" cy="65" r="2" fill="#dce5f5" opacity="0.16"/><circle cx="140" cy="113" r="2" fill="#dce5f5" opacity="0.54"/><circle cx="127" cy="123" r="1.5" fill="#dce5f5" opacity="0.48"/><circle cx="223" cy="27" r="1" fill="#dce5f5" opacity="0.58"/><circle cx="99" cy="112" r="1.5" fill="#dce5f5" opacity="0.31"/><circle cx="287" cy="137" r="1.5" fill="#dce5f5" opacity="0.40"/><circle cx="232" cy="25" r="1" fill="#dce5f5" opacity="0.32"/><circle cx="242" cy="16" r="1" fill="#dce5f5" opacity="0.43"/><circle cx="258" cy="12" r="1" fill="#dce5f5" opacity="0.60"/><circle cx="137" cy="39" r="1.5" fill="#dce5f5" opacity="0.36"/><circle cx="107" cy="93" r="1.5" fill="#dce5f5" opacity="0.40"/><circle cx="18" cy="90" r="1.5" fill="#dce5f5" opacity="0.33"/><circle cx="249" cy="68" r="1" fill="#dce5f5" opacity="0.54"/><circle cx="30" cy="130" r="1" fill="#dce5f5" opacity="0.51"/><circle cx="93" cy="133" r="1.5" fill="#dce5f5" opacity="0.62"/><circle cx="29" cy="98" r="1" fill="#dce5f5" opacity="0.51"/><circle cx="155" cy="56" r="1.5" fill="#dce5f5" opacity="0.64"/><circle cx="50" cy="141" r="1" fill="#dce5f5" opacity="0.46"/><circle cx="148" cy="78" r="1" fill="#dce5f5" opacity="0.63"/><circle cx="144" cy="97" r="1" fill="#dce5f5" opacity="0.36"/><circle cx="261" cy="124" r="1.5" fill="#dce5f5" opacity="0.28"/><circle cx="181" cy="119" r="1" fill="#dce5f5" opacity="0.33"/><circle cx="182" cy="38" r="1.5" fill="#dce5f5" opacity="0.24"/><circle cx="43" cy="82" r="1.5" fill="#dce5f5" opacity="0.28"/><circle cx="147" cy="126" r="1" fill="#dce5f5" opacity="0.25"/><circle cx="59" cy="26" r="2" fill="#dce5f5" opacity="0.34"/><ellipse cx="160" cy="200" rx="120" ry="20" fill="#02050a" opacity=".6"/><path d="M90 65 Q160 32 230 65 L215 175 Q160 207 105 175Z" fill="#111927" stroke="#9c9a82" stroke-width="4"/><path d="M112 86 Q160 108 208 86 M112 116 Q160 138 208 116 M112 146 Q160 168 208 146" fill="none" stroke="#8b9aab" stroke-width="3"/><path d="M0 0H320V240H0Z" fill="none" stroke="#9c9a82" stroke-width="2"/><path d="M12 14H55 M12 14V45 M308 226H265 M308 226V195" stroke="#9c9a82" stroke-width="2" opacity=".9"/><text x="16" y="222" fill="#e8edf5" font-family="Arial,sans-serif" font-size="10" letter-spacing="2" opacity=".8">CASE FILE / 17</text></svg>