<svg xmlns="http://www.w3.org/2000/svg" width="320" height="240" viewBox="0 0 320 240"><defs><linearGradient id="g" x1="0" y1="0" x2="1" y2="1"><stop stop-color="#24232b"/><stop offset="1" stop-color="#05080f"/></linearGradient><radialGradient id="glow"><stop stop-color="#d4b15f" stop-opacity=".35"/><stop offset="1" stop-color="#d4b15f" stop-opacity="0"/></radialGradient></defs><rect width="320" height="240" fill="url(#g)"/><rect width="320" height="240" fill="url(#glow)"/><circle cx="248" cy="128" r="2" fill="#dce5f5" opacity="0.20"/><circle cx="286" cy="91" r="2" fill="#dce5f5" opacity="0.57"/><circle cx="82" cy="127" r="1" fill="#dce5f5" opacity="0.21"/><circle cx="181" cy="27" r="1" fill="#dce5f5" opacity="0.48"/><circle cx="63" cy="99" r="2" fill="#dce5f5" opacity="0.18"/><circle cx="206" cy="49" r="1" fill="#dce5f5" opacity="0.63"/><circle cx="274" cy="113" r="2" fill="#dce5f5" opacity="0.22"/><circle cx="92" cy="24" r="1" fill="#dce5f5" opacity="0.51"/><circle cx="242" cy="46" r="2" fill="#dce5f5" opacity="0.64"/><circle cx="187" cy="117" r="2" fill="#dce5f5" opacity="0.36"/><circle cx="151" cy="45" r="2" fill="#dce5f5" opacity="0.41"/><circle cx="206" cy="140" r="1" fill="#dce5f5" opacity="0.29"/><circle cx="51" cy="146" r="1.5" fill="#dce5f5" opacity="0.36"/><circle cx="230" cy="150" r="1.5" fill="#dce5f5" opacity="0.24"/><circle cx="259" cy="109" r="1" fill="#dce5f5" opacity="0.42"/><circle cx="212" cy="98" r="2" fill="#dce5f5" opacity="0.37"/><circle cx="105" cy="21" r="1.5" fill="#dce5f5" opacity="0.39"/><circle cx="121" cy="121" r="1" fill="#dce5f5" opacity="0.35"/><circle cx="230" cy="133" r="1.5" fill="#dce5f5" opacity="0.39"/><circle cx="144" cy="65" r="1" fill="#dce5f5" opacity="0.55"/><circle cx="102" cy="9" r="2" fill="#dce5f5" opacity="0.57"/><circle cx="268" cy="30" r="2" fill="#dce5f5" opacity="0.63"/><circle cx="130" cy="65" r="1.5" fill="#dce5f5" opacity="0.32"/><circle cx="46" cy="141" r="2" fill="#dce5f5" opacity="0.40"/><circle cx="236" cy="107" r="1.5" fill="#dce5f5" opacity="0.36"/><circle cx="230" cy="145" r="1" fill="#dce5f5" opacity="0.18"/><circle cx="50" cy="30" r="2" fill="#dce5f5" opacity="0.53"/><circle cx="29" cy="126" r="1" fill="#dce5f5" opacity="0.51"/><circle cx="57" cy="53" r="2" fill="#dce5f5" opacity="0.61"/><circle cx="268" cy="54" r="1" fill="#dce5f5" opacity="0.37"/><circle cx="95" cy="59" r="1.5" fill="#dce5f5" opacity="0.61"/><circle cx="17" cy="68" r="2" fill="#dce5f5" opacity="0.34"/><circle cx="33" cy="34" r="1.5" fill="#dce5f5" opacity="0.37"/><circle cx="11" cy="10" r="2" fill="#dce5f5" opacity="0.19"/><ellipse cx="160" cy="200" rx="120" ry="20" fill="#02050a" opacity=".6"/><rect x="86" y="48" width="148" height="150" rx="10" fill="#0c1421" stroke="#d4b15f" stroke-width="4"/><rect x="101" y="64" width="118" height="105" rx="4" fill="#233043"/><circle cx="160" cy="181" r="5" fill="#d5dbe5"/><path d="M0 0H320V240H0Z" fill="none" stroke="#d4b15f" stroke-width="2"/><path d="M12 14H55 M12 14V45 M308 226H265 M308 226V195" stroke="#d4b15f" stroke-width="2" opacity=".9"/><text x="16" y="222" fill="#e8edf5" font-family="Arial,sans-serif" font-size="10" letter-spacing="2" opacity=".8">CASE FILE / 109</text></svg>