<svg xmlns="http://www.w3.org/2000/svg" width="320" height="240" viewBox="0 0 320 240"><defs><linearGradient id="g" x1="0" y1="0" x2="1" y2="1"><stop stop-color="#182c36"/><stop offset="1" stop-color="#05080f"/></linearGradient><radialGradient id="glow"><stop stop-color="#b1a47b" stop-opacity=".35"/><stop offset="1" stop-color="#b1a47b" stop-opacity="0"/></radialGradient></defs><rect width="320" height="240" fill="url(#g)"/><rect width="320" height="240" fill="url(#glow)"/><circle cx="240" cy="116" r="2" fill="#dce5f5" opacity="0.47"/><circle cx="280" cy="132" r="1.5" fill="#dce5f5" opacity="0.50"/><circle cx="20" cy="30" r="1" fill="#dce5f5" opacity="0.21"/><circle cx="219" cy="9" r="1" fill="#dce5f5" opacity="0.37"/><circle cx="228" cy="37" r="2" fill="#dce5f5" opacity="0.63"/><circle cx="206" cy="95" r="2" fill="#dce5f5" opacity="0.32"/><circle cx="231" cy="11" r="2" fill="#dce5f5" opacity="0.31"/><circle cx="241" cy="109" r="1" fill="#dce5f5" opacity="0.35"/><circle cx="237" cy="43" r="2" fill="#dce5f5" opacity="0.21"/><circle cx="240" cy="28" r="1" fill="#dce5f5" opacity="0.35"/><circle cx="154" cy="18" r="1" fill="#dce5f5" opacity="0.34"/><circle cx="67" cy="90" r="2" fill="#dce5f5" opacity="0.39"/><circle cx="252" cy="88" r="1.5" fill="#dce5f5" opacity="0.26"/><circle cx="292" cy="147" r="1.5" fill="#dce5f5" opacity="0.16"/><circle cx="198" cy="97" r="2" fill="#dce5f5" opacity="0.22"/><circle cx="277" cy="41" r="1.5" fill="#dce5f5" opacity="0.51"/><circle cx="289" cy="68" r="1" fill="#dce5f5" opacity="0.27"/><circle cx="291" cy="76" r="2" fill="#dce5f5" opacity="0.60"/><circle cx="57" cy="87" r="1" fill="#dce5f5" opacity="0.46"/><circle cx="34" cy="34" r="1.5" fill="#dce5f5" opacity="0.15"/><circle cx="186" cy="87" r="1" fill="#dce5f5" opacity="0.24"/><circle cx="292" cy="125" r="1.5" fill="#dce5f5" opacity="0.46"/><circle cx="137" cy="115" r="1.5" fill="#dce5f5" opacity="0.18"/><circle cx="195" cy="73" r="2" fill="#dce5f5" opacity="0.37"/><circle cx="172" cy="28" r="2" fill="#dce5f5" opacity="0.44"/><circle cx="150" cy="63" r="2" fill="#dce5f5" opacity="0.16"/><circle cx="135" cy="102" r="1.5" fill="#dce5f5" opacity="0.43"/><circle cx="14" cy="17" r="2" fill="#dce5f5" opacity="0.51"/><circle cx="252" cy="144" r="1" fill="#dce5f5" opacity="0.51"/><circle cx="233" cy="106" r="1.5" fill="#dce5f5" opacity="0.42"/><circle cx="19" cy="28" r="1.5" fill="#dce5f5" opacity="0.29"/><circle cx="166" cy="22" r="1" fill="#dce5f5" opacity="0.45"/><circle cx="204" cy="90" r="1" fill="#dce5f5" opacity="0.33"/><circle cx="48" cy="45" r="2" fill="#dce5f5" opacity="0.42"/><ellipse cx="160" cy="200" rx="120" ry="20" fill="#02050a" opacity=".6"/><rect x="86" y="48" width="148" height="150" rx="10" fill="#0c1421" stroke="#b1a47b" stroke-width="4"/><rect x="101" y="64" width="118" height="105" rx="4" fill="#233043"/><circle cx="160" cy="181" r="5" fill="#d5dbe5"/><path d="M0 0H320V240H0Z" fill="none" stroke="#b1a47b" stroke-width="2"/><path d="M12 14H55 M12 14V45 M308 226H265 M308 226V195" stroke="#b1a47b" stroke-width="2" opacity=".9"/><text x="16" y="222" fill="#e8edf5" font-family="Arial,sans-serif" font-size="10" letter-spacing="2" opacity=".8">CASE FILE / 39</text></svg>