<svg xmlns="http://www.w3.org/2000/svg" width="320" height="240" viewBox="0 0 320 240"><defs><linearGradient id="g" x1="0" y1="0" x2="1" y2="1"><stop stop-color="#123344"/><stop offset="1" stop-color="#05080f"/></linearGradient><radialGradient id="glow"><stop stop-color="#c99a39" stop-opacity=".35"/><stop offset="1" stop-color="#c99a39" stop-opacity="0"/></radialGradient></defs><rect width="320" height="240" fill="url(#g)"/><rect width="320" height="240" fill="url(#glow)"/><circle cx="257" cy="44" r="1" fill="#dce5f5" opacity="0.60"/><circle cx="158" cy="65" r="1.5" fill="#dce5f5" opacity="0.47"/><circle cx="89" cy="105" r="1.5" fill="#dce5f5" opacity="0.34"/><circle cx="64" cy="94" r="1" fill="#dce5f5" opacity="0.15"/><circle cx="160" cy="75" r="1.5" fill="#dce5f5" opacity="0.59"/><circle cx="155" cy="134" r="2" fill="#dce5f5" opacity="0.16"/><circle cx="195" cy="100" r="2" fill="#dce5f5" opacity="0.55"/><circle cx="198" cy="148" r="1.5" fill="#dce5f5" opacity="0.61"/><circle cx="144" cy="107" r="1.5" fill="#dce5f5" opacity="0.18"/><circle cx="85" cy="136" r="2" fill="#dce5f5" opacity="0.22"/><circle cx="244" cy="48" r="1.5" fill="#dce5f5" opacity="0.61"/><circle cx="76" cy="55" r="1" fill="#dce5f5" opacity="0.22"/><circle cx="167" cy="74" r="2" fill="#dce5f5" opacity="0.39"/><circle cx="56" cy="18" r="2" fill="#dce5f5" opacity="0.53"/><circle cx="44" cy="109" r="1" fill="#dce5f5" opacity="0.20"/><circle cx="30" cy="70" r="1" fill="#dce5f5" opacity="0.45"/><circle cx="171" cy="103" r="1.5" fill="#dce5f5" opacity="0.23"/><circle cx="267" cy="91" r="2" fill="#dce5f5" opacity="0.56"/><circle cx="96" cy="87" r="2" fill="#dce5f5" opacity="0.24"/><circle cx="151" cy="90" r="1.5" fill="#dce5f5" opacity="0.21"/><circle cx="100" cy="48" r="2" fill="#dce5f5" opacity="0.63"/><circle cx="255" cy="54" r="1" fill="#dce5f5" opacity="0.32"/><circle cx="139" cy="108" r="1.5" fill="#dce5f5" opacity="0.59"/><circle cx="92" cy="42" r="1.5" fill="#dce5f5" opacity="0.59"/><circle cx="12" cy="135" r="2" fill="#dce5f5" opacity="0.19"/><circle cx="192" cy="97" r="2" fill="#dce5f5" opacity="0.23"/><circle cx="63" cy="53" r="1" fill="#dce5f5" opacity="0.46"/><circle cx="254" cy="55" r="1" fill="#dce5f5" opacity="0.36"/><circle cx="84" cy="20" r="1" fill="#dce5f5" opacity="0.50"/><circle cx="12" cy="143" r="1" fill="#dce5f5" opacity="0.48"/><circle cx="92" cy="122" r="2" fill="#dce5f5" opacity="0.45"/><circle cx="135" cy="141" r="2" fill="#dce5f5" opacity="0.49"/><circle cx="154" cy="108" r="1.5" fill="#dce5f5" opacity="0.60"/><circle cx="67" cy="77" r="1.5" fill="#dce5f5" opacity="0.49"/><ellipse cx="160" cy="200" rx="120" ry="20" fill="#02050a" opacity=".6"/><path d="M90 65 Q160 32 230 65 L215 175 Q160 207 105 175Z" fill="#111927" stroke="#c99a39" stroke-width="4"/><path d="M112 86 Q160 108 208 86 M112 116 Q160 138 208 116 M112 146 Q160 168 208 146" fill="none" stroke="#8b9aab" stroke-width="3"/><path d="M0 0H320V240H0Z" fill="none" stroke="#c99a39" stroke-width="2"/><path d="M12 14H55 M12 14V45 M308 226H265 M308 226V195" stroke="#c99a39" stroke-width="2" opacity=".9"/><text x="16" y="222" fill="#e8edf5" font-family="Arial,sans-serif" font-size="10" letter-spacing="2" opacity=".8">CASE FILE / 62</text></svg>