<svg xmlns="http://www.w3.org/2000/svg" width="320" height="240" viewBox="0 0 320 240"><defs><linearGradient id="g" x1="0" y1="0" x2="1" y2="1"><stop stop-color="#1b2638"/><stop offset="1" stop-color="#05080f"/></linearGradient><radialGradient id="glow"><stop stop-color="#e0b64f" stop-opacity=".35"/><stop offset="1" stop-color="#e0b64f" stop-opacity="0"/></radialGradient></defs><rect width="320" height="240" fill="url(#g)"/><rect width="320" height="240" fill="url(#glow)"/><circle cx="91" cy="86" r="1" fill="#dce5f5" opacity="0.16"/><circle cx="262" cy="14" r="2" fill="#dce5f5" opacity="0.42"/><circle cx="142" cy="67" r="2" fill="#dce5f5" opacity="0.18"/><circle cx="210" cy="119" r="1.5" fill="#dce5f5" opacity="0.29"/><circle cx="215" cy="36" r="1.5" fill="#dce5f5" opacity="0.38"/><circle cx="225" cy="31" r="1.5" fill="#dce5f5" opacity="0.34"/><circle cx="210" cy="113" r="1.5" fill="#dce5f5" opacity="0.30"/><circle cx="24" cy="46" r="2" fill="#dce5f5" opacity="0.58"/><circle cx="38" cy="20" r="1" fill="#dce5f5" opacity="0.16"/><circle cx="41" cy="115" r="1.5" fill="#dce5f5" opacity="0.39"/><circle cx="141" cy="61" r="2" fill="#dce5f5" opacity="0.37"/><circle cx="131" cy="143" r="1" fill="#dce5f5" opacity="0.61"/><circle cx="79" cy="98" r="1" fill="#dce5f5" opacity="0.31"/><circle cx="254" cy="91" r="2" fill="#dce5f5" opacity="0.29"/><circle cx="54" cy="28" r="1" fill="#dce5f5" opacity="0.47"/><circle cx="9" cy="21" r="1.5" fill="#dce5f5" opacity="0.22"/><circle cx="161" cy="15" r="1" fill="#dce5f5" opacity="0.53"/><circle cx="160" cy="8" r="1" fill="#dce5f5" opacity="0.30"/><circle cx="38" cy="144" r="2" fill="#dce5f5" opacity="0.26"/><circle cx="130" cy="116" r="1" fill="#dce5f5" opacity="0.58"/><circle cx="187" cy="106" r="1" fill="#dce5f5" opacity="0.26"/><circle cx="168" cy="55" r="1.5" fill="#dce5f5" opacity="0.59"/><circle cx="186" cy="111" r="1" fill="#dce5f5" opacity="0.64"/><circle cx="277" cy="35" r="1" fill="#dce5f5" opacity="0.38"/><circle cx="56" cy="114" r="2" fill="#dce5f5" opacity="0.57"/><circle cx="100" cy="101" r="1.5" fill="#dce5f5" opacity="0.22"/><circle cx="240" cy="102" r="1" fill="#dce5f5" opacity="0.18"/><circle cx="261" cy="84" r="1.5" fill="#dce5f5" opacity="0.42"/><circle cx="27" cy="136" r="1.5" fill="#dce5f5" opacity="0.17"/><circle cx="214" cy="102" r="1" fill="#dce5f5" opacity="0.64"/><circle cx="240" cy="63" r="2" fill="#dce5f5" opacity="0.26"/><circle cx="225" cy="35" r="2" fill="#dce5f5" opacity="0.61"/><circle cx="259" cy="79" r="1.5" fill="#dce5f5" opacity="0.31"/><circle cx="18" cy="126" r="2" fill="#dce5f5" opacity="0.52"/><ellipse cx="160" cy="200" rx="120" ry="20" fill="#02050a" opacity=".6"/><path d="M74 64H236V182H74Z" fill="#d4c6a6" stroke="#e0b64f" stroke-width="5"/><path d="M94 91H215 M94 113H201 M94 135H220 M94 157H170" stroke="#4a453b" stroke-width="4"/><path d="M0 0H320V240H0Z" fill="none" stroke="#e0b64f" stroke-width="2"/><path d="M12 14H55 M12 14V45 M308 226H265 M308 226V195" stroke="#e0b64f" stroke-width="2" opacity=".9"/><text x="16" y="222" fill="#e8edf5" font-family="Arial,sans-serif" font-size="10" letter-spacing="2" opacity=".8">CASE FILE / 133</text></svg>