<svg xmlns="http://www.w3.org/2000/svg" width="320" height="240" viewBox="0 0 320 240"><defs><linearGradient id="g" x1="0" y1="0" x2="1" y2="1"><stop stop-color="#342b1f"/><stop offset="1" stop-color="#05080f"/></linearGradient><radialGradient id="glow"><stop stop-color="#bca56a" stop-opacity=".35"/><stop offset="1" stop-color="#bca56a" stop-opacity="0"/></radialGradient></defs><rect width="320" height="240" fill="url(#g)"/><rect width="320" height="240" fill="url(#glow)"/><circle cx="249" cy="10" r="2" fill="#dce5f5" opacity="0.25"/><circle cx="131" cy="101" r="2" fill="#dce5f5" opacity="0.62"/><circle cx="143" cy="30" r="1.5" fill="#dce5f5" opacity="0.36"/><circle cx="223" cy="41" r="1.5" fill="#dce5f5" opacity="0.56"/><circle cx="36" cy="38" r="1" fill="#dce5f5" opacity="0.17"/><circle cx="204" cy="29" r="2" fill="#dce5f5" opacity="0.21"/><circle cx="203" cy="54" r="1.5" fill="#dce5f5" opacity="0.21"/><circle cx="79" cy="21" r="1.5" fill="#dce5f5" opacity="0.35"/><circle cx="149" cy="96" r="1" fill="#dce5f5" opacity="0.32"/><circle cx="112" cy="149" r="1.5" fill="#dce5f5" opacity="0.43"/><circle cx="88" cy="141" r="2" fill="#dce5f5" opacity="0.43"/><circle cx="229" cy="72" r="1.5" fill="#dce5f5" opacity="0.55"/><circle cx="243" cy="85" r="1.5" fill="#dce5f5" opacity="0.55"/><circle cx="233" cy="98" r="2" fill="#dce5f5" opacity="0.20"/><circle cx="290" cy="145" r="1" fill="#dce5f5" opacity="0.34"/><circle cx="19" cy="121" r="1" fill="#dce5f5" opacity="0.61"/><circle cx="268" cy="56" r="2" fill="#dce5f5" opacity="0.35"/><circle cx="244" cy="126" r="1" fill="#dce5f5" opacity="0.54"/><circle cx="174" cy="94" r="2" fill="#dce5f5" opacity="0.48"/><circle cx="28" cy="26" r="1" fill="#dce5f5" opacity="0.57"/><circle cx="215" cy="109" r="1" fill="#dce5f5" opacity="0.57"/><circle cx="48" cy="10" r="2" fill="#dce5f5" opacity="0.18"/><circle cx="49" cy="113" r="1.5" fill="#dce5f5" opacity="0.61"/><circle cx="195" cy="65" r="1.5" fill="#dce5f5" opacity="0.57"/><circle cx="246" cy="114" r="1.5" fill="#dce5f5" opacity="0.24"/><circle cx="182" cy="23" r="1.5" fill="#dce5f5" opacity="0.29"/><circle cx="28" cy="90" r="1" fill="#dce5f5" opacity="0.52"/><circle cx="238" cy="117" r="2" fill="#dce5f5" opacity="0.21"/><circle cx="187" cy="107" r="2" fill="#dce5f5" opacity="0.28"/><circle cx="274" cy="112" r="1" fill="#dce5f5" opacity="0.39"/><circle cx="175" cy="63" r="2" fill="#dce5f5" opacity="0.56"/><circle cx="44" cy="33" r="1" fill="#dce5f5" opacity="0.56"/><circle cx="103" cy="54" r="2" fill="#dce5f5" opacity="0.39"/><circle cx="105" cy="149" r="1.5" fill="#dce5f5" opacity="0.18"/><ellipse cx="160" cy="200" rx="120" ry="20" fill="#02050a" opacity=".6"/><path d="M70 65 L240 175 L220 198 L52 90Z" fill="#c4c9d0" stroke="#bca56a" stroke-width="3"/><path d="M52 90L82 108L70 65Z" fill="#343b48"/><path d="M0 0H320V240H0Z" fill="none" stroke="#bca56a" stroke-width="2"/><path d="M12 14H55 M12 14V45 M308 226H265 M308 226V195" stroke="#bca56a" stroke-width="2" opacity=".9"/><text x="16" y="222" fill="#e8edf5" font-family="Arial,sans-serif" font-size="10" letter-spacing="2" opacity=".8">CASE FILE / 71</text></svg>